<?xml version="1.0" standalone="no"?>
<!DOCTYPE svg PUBLIC "-//W3C//DTD SVG 20010904//EN"
 "http://www.w3.org/TR/2001/REC-SVG-20010904/DTD/svg10.dtd">
<svg version="1.0" xmlns="http://www.w3.org/2000/svg"
 width="174.000000pt" height="174.000000pt" viewBox="0 0 174.000000 174.000000"
 preserveAspectRatio="xMidYMid meet">
<metadata>
Created by potrace 1.11, written by Peter Selinger 2001-2013
</metadata>
<g transform="translate(0.000000,174.000000) scale(0.100000,-0.100000)"
fill="#000000" stroke="none">
<path d="M570 1381 c-30 -9 -69 -24 -86 -33 -43 -24 -101 -86 -125 -134 -18
-38 -23 -42 -67 -46 -142 -14 -253 -139 -255 -287 0 -26 7 -62 16 -81 10 -18
17 -56 18 -84 1 -94 50 -178 117 -201 37 -13 46 -13 75 0 17 8 39 20 47 26 20
14 70 -5 70 -27 0 -45 58 -135 113 -175 73 -53 187 -34 249 42 15 17 25 36 22
40 -2 4 30 -9 73 -31 110 -55 218 -80 347 -80 96 0 113 3 203 36 58 22 120 38
150 39 90 4 98 14 148 180 34 114 32 192 -10 277 -57 116 -159 180 -289 180
l-61 1 -40 54 c-105 145 -286 265 -460 304 -77 18 -193 17 -255 0z"/>
</g>
</svg>
